<svg xmlns="http://www.w3.org/2000/svg" viewBox="0 0 569.6 224.26"><defs><style>.cls-1{fill:#00858b;}.cls-2{fill:#973346;}</style></defs><g id="Layer_2" data-name="Layer 2"><g id="Layer_1-2" data-name="Layer 1"><path class="cls-1" d="M7.5,45.19H46.18A43.17,43.17,0,0,1,57.7,46.82,48.58,48.58,0,0,1,69.06,51.6a55.59,55.59,0,0,1,10.27,7.65,52.9,52.9,0,0,1,8.27,9.9,51,51,0,0,1,5.58,12.39,47.6,47.6,0,0,1,2,13.73,48.54,48.54,0,0,1-3.49,18.26,51,51,0,0,1-24.45,26.53,49.08,49.08,0,0,1-17.8,5q-5,.42-9.07.42H26.8v19.38q0,3.83-4,3.82H7.42q-3.82,0-3.82-3.82V49.27Q3.6,45.19,7.5,45.19ZM72.63,95.1a29.94,29.94,0,0,0-2.2-11.35,31,31,0,0,0-6.2-9.69,28.44,28.44,0,0,0-9.6-6.7A29.8,29.8,0,0,0,42.77,65h-16v60.14H43.44A28.49,28.49,0,0,0,64,116.48a29.43,29.43,0,0,0,6.37-9.57A30.46,30.46,0,0,0,72.63,95.1Z"/><path class="cls-1" d="M112.14,165.72V48.6q0-3.41,3.16-3.41h82.27c2.21,0,3.32,1.2,3.32,3.58V63.24A3.59,3.59,0,0,1,200,65.7a3.27,3.27,0,0,1-2.58,1h-62v41.67h48.83q3.24,0,3.24,3.08V124.8a3.12,3.12,0,0,1-.83,2.16,3,3,0,0,1-2.33.91H135.43v19.38h64q3.24,0,3.24,3.41v12.65a10.15,10.15,0,0,1-.62,4.07c-.42.89-1.32,1.33-2.71,1.33H115.3C113.19,168.71,112.14,167.72,112.14,165.72Z"/><path class="cls-1" d="M314.85,54.18a3.91,3.91,0,0,1,2.33,3.41,4.29,4.29,0,0,1-.5,1.91l-8.07,13.73c-1,1.33-2,2-3,2a4.74,4.74,0,0,1-2.49-.91,39.91,39.91,0,0,0-24-7.9A37.3,37.3,0,0,0,251.38,78.3a39.15,39.15,0,0,0-8.07,13,44,44,0,0,0-2.82,15.8,43.49,43.49,0,0,0,2.82,15.68,39.23,39.23,0,0,0,8.07,12.93,37.48,37.48,0,0,0,12.39,8.74,38.21,38.21,0,0,0,15.39,3.07,40.7,40.7,0,0,0,12.81-2,40,40,0,0,0,11.31-5.87,5.62,5.62,0,0,1,2.67-.91,3.63,3.63,0,0,1,2.82,1.83L317,154.41a4.29,4.29,0,0,1,.5,1.91c0,1.28-.78,2.36-2.33,3.24a63.2,63.2,0,0,1-35.85,11,64,64,0,0,1-16.85-2.2,61.36,61.36,0,0,1-15.26-6.45,64.05,64.05,0,0,1-22.79-22.79A59.73,59.73,0,0,1,218,123.92a64.28,64.28,0,0,1-2.2-16.84,62.35,62.35,0,0,1,8.65-32.19,63.36,63.36,0,0,1,10-13A62.5,62.5,0,0,1,247.22,52a64.06,64.06,0,0,1,15.31-6.41,63.75,63.75,0,0,1,52.32,8.57Z"/><path class="cls-1" d="M428,54.18a3.9,3.9,0,0,1,2.32,3.41,4.16,4.16,0,0,1-.5,1.91l-8.06,13.73c-1,1.33-2,2-3,2a4.74,4.74,0,0,1-2.49-.91,39.91,39.91,0,0,0-24-7.9A37.3,37.3,0,0,0,364.5,78.3a39.15,39.15,0,0,0-8.07,13,44,44,0,0,0-2.83,15.8,43.49,43.49,0,0,0,2.83,15.68,39.23,39.23,0,0,0,8.07,12.93,37.48,37.48,0,0,0,12.39,8.74,38.21,38.21,0,0,0,15.39,3.07,40.7,40.7,0,0,0,12.81-2,40,40,0,0,0,11.31-5.87,5.62,5.62,0,0,1,2.67-.91,3.63,3.63,0,0,1,2.82,1.83l8.24,13.89a4.29,4.29,0,0,1,.5,1.91c0,1.28-.78,2.36-2.33,3.24a64.5,64.5,0,0,1-52.7,8.78,61.36,61.36,0,0,1-15.26-6.45,64.05,64.05,0,0,1-22.79-22.79,59.73,59.73,0,0,1-6.45-15.18,63.86,63.86,0,0,1-2.2-16.84,62.35,62.35,0,0,1,8.65-32.19,63.36,63.36,0,0,1,10-13A62.5,62.5,0,0,1,360.34,52a64.06,64.06,0,0,1,15.31-6.41A63.75,63.75,0,0,1,428,54.18Z"/><path class="cls-1" d="M442.19,107.08a64.47,64.47,0,0,1,2.2-16.84A59.58,59.58,0,0,1,450.84,75a66.52,66.52,0,0,1,10-13,61.85,61.85,0,0,1,12.77-9.9,64.57,64.57,0,0,1,15.3-6.41,63.82,63.82,0,0,1,33.52,0,64.47,64.47,0,0,1,15.31,6.41A62.05,62.05,0,0,1,550.57,62,68,68,0,0,1,560.63,75a62.26,62.26,0,0,1,6.49,15.35,63.31,63.31,0,0,1,2.25,16.84,62.47,62.47,0,0,1-8.65,32,60,60,0,0,1-9.9,12.8,64.51,64.51,0,0,1-13,9.9,65.51,65.51,0,0,1-15.39,6.41,63.2,63.2,0,0,1-16.8,2.24,63.92,63.92,0,0,1-16.84-2.2,61,61,0,0,1-15.26-6.45A63.69,63.69,0,0,1,460.69,152a61.2,61.2,0,0,1-9.85-12.85,62.41,62.41,0,0,1-6.41-15.22A63.2,63.2,0,0,1,442.19,107.08Zm23.2-.17a42.15,42.15,0,0,0,3,16A39.74,39.74,0,0,0,477,136,40.21,40.21,0,0,0,490,144.84a40.58,40.58,0,0,0,31.4,0,40.1,40.1,0,0,0,13-8.82,40.91,40.91,0,0,0,8.56-13.18,41.95,41.95,0,0,0-8.56-45,40.66,40.66,0,0,0-13-8.85A40,40,0,0,0,490,69,40.78,40.78,0,0,0,477,77.88,38.87,38.87,0,0,0,468.43,91,42.28,42.28,0,0,0,465.39,106.91Z"/><path class="cls-1" d="M156.6,200.18v-4.1a8.78,8.78,0,0,1,.66-3.48,6.82,6.82,0,0,1,1.91-2.6,7.94,7.94,0,0,1,2.9-1.57,12.33,12.33,0,0,1,3.76-.54,1.36,1.36,0,0,1,1,.34,1.31,1.31,0,0,1,.36,1v3.33a1.22,1.22,0,0,1-.79,1.3,2.83,2.83,0,0,1-.9.14h-.56a1.68,1.68,0,0,0-1.43.77,3.37,3.37,0,0,0-.54,2v3.45h3.6a1.15,1.15,0,0,1,1.27,1.32V204a1.52,1.52,0,0,1-.35,1,1.17,1.17,0,0,1-.92.39H163v10.47l8.39-7.16a1.38,1.38,0,0,1,.86-.46.8.8,0,0,1,.48.18,3,3,0,0,1,.55.57l1.85,2.15a1.52,1.52,0,0,1,.43,1,1,1,0,0,1-.36.8L163,223.4a1.13,1.13,0,0,1-.54.3,3.31,3.31,0,0,1-.7.06H157.9a1.4,1.4,0,0,1-.92-.31,1,1,0,0,1-.38-.82V205.4h-.91a1.24,1.24,0,0,1-1-.38,1.45,1.45,0,0,1-.35-1V201.5a1.16,1.16,0,0,1,1.31-1.32Z"/><path class="cls-1" d="M169.83,193.21a3.56,3.56,0,0,1,1.08-2.62,3.88,3.88,0,0,1,1.18-.79,3.66,3.66,0,0,1,1.41-.28,3.6,3.6,0,0,1,2.63,1.07,3.55,3.55,0,0,1,1.06,2.62,3.77,3.77,0,0,1-.28,1.41,3.34,3.34,0,0,1-.78,1.17,3.57,3.57,0,0,1-2.63,1.08,3.49,3.49,0,0,1-1.41-.29,3.66,3.66,0,0,1-2-2A3.62,3.62,0,0,1,169.83,193.21Zm.6,29.42V201.38a1.18,1.18,0,0,1,.3-.83,1.08,1.08,0,0,1,.83-.32h4a1.23,1.23,0,0,1,.82.32,1.05,1.05,0,0,1,.38.83v14.49l7.64-6.56a1.27,1.27,0,0,1,.79-.34,1,1,0,0,1,.7.31l.33.36,1,1a9,9,0,0,1,1.17,1.44,1.23,1.23,0,0,1,.22.65,1,1,0,0,1-.36.83l-11,9.37c-.35.29-.63.5-.84.64a1.29,1.29,0,0,1-.74.18h-4.05A1,1,0,0,1,170.43,222.63Z"/><path class="cls-1" d="M219.55,213.53,208,223.16a2.27,2.27,0,0,1-.75.45,2.69,2.69,0,0,1-1,.15h-2.78a1.24,1.24,0,0,1-.93-.31,1.48,1.48,0,0,1-.34-.91l-.07-1.06a10.63,10.63,0,0,1-7,2.78,12.07,12.07,0,0,1-4.74-.93,11.54,11.54,0,0,1-3.81-2.61,11.73,11.73,0,0,1-2.53-3.89,12.57,12.57,0,0,1-.9-4.77,13.15,13.15,0,0,1,.86-4.74,11.77,11.77,0,0,1,2.47-3.91,11.46,11.46,0,0,1,8.44-3.54,11.1,11.1,0,0,1,7.5,3l.09-1.39a1.08,1.08,0,0,1,1.3-1.24h3a1.29,1.29,0,0,1,.91.33,1.17,1.17,0,0,1,.36.89V215.8l7.62-6.54a1.29,1.29,0,0,1,.79-.36,1,1,0,0,1,.77.43l2.47,2.71a.93.93,0,0,1,.24.65A1.1,1.1,0,0,1,219.55,213.53Zm-30-1.49a6.6,6.6,0,0,0,.47,2.46,6.74,6.74,0,0,0,1.3,2.05,5.84,5.84,0,0,0,2,1.37,5.76,5.76,0,0,0,2.38.49,6.38,6.38,0,0,0,4.51-1.86,6.48,6.48,0,0,0,1.35-2A6.29,6.29,0,0,0,202,212a6.18,6.18,0,0,0-.49-2.44,6.57,6.57,0,0,0-1.35-2.06,6.36,6.36,0,0,0-2-1.39,6.09,6.09,0,0,0-2.46-.51,5.54,5.54,0,0,0-2.37.51,6.25,6.25,0,0,0-2,1.39,6.44,6.44,0,0,0-1.3,2.06A6.54,6.54,0,0,0,189.55,212Z"/><path class="cls-1" d="M232.85,222.63V210.08L221.61,223.3a1.3,1.3,0,0,1-1.08.46h-4a1,1,0,0,1-1.15-1.13V201.38a1.18,1.18,0,0,1,.31-.83,1.11,1.11,0,0,1,.82-.32h4a1.23,1.23,0,0,1,.86.33,1.09,1.09,0,0,1,.36.82v12.53l11.55-13.44a1,1,0,0,1,.72-.24h4a1.28,1.28,0,0,1,.87.32,1.07,1.07,0,0,1,.36.83v12.46l11.26-13.18a1.4,1.4,0,0,1,.42-.34,1.32,1.32,0,0,1,.54-.09h4a1.26,1.26,0,0,1,.85.33,1.1,1.1,0,0,1,.37.82v14.49l7.55-6.54a1.59,1.59,0,0,1,.93-.4,1,1,0,0,1,.72.35l2.44,2.64a1.27,1.27,0,0,1,.36.77,1.13,1.13,0,0,1-.48.84l-.64.57-11,9.27a1.42,1.42,0,0,1-1,.39h-4.05a1,1,0,0,1-1.15-1.13V210.08l-11.12,13.08a1.38,1.38,0,0,1-1.15.6h-4A1,1,0,0,1,232.85,222.63Z"/><path class="cls-1" d="M276.8,224.26a10.15,10.15,0,0,1-3.93-.73,12.06,12.06,0,0,1-3.31-2.07,7.9,7.9,0,0,1-.43,1.22,1.56,1.56,0,0,1-.55.67,3.44,3.44,0,0,1-1.89.41h-1.75a1,1,0,0,1-.77-.31,1.24,1.24,0,0,1-.26-.84V189.3a1,1,0,0,1,.37-.81,1.16,1.16,0,0,1,.82-.34h4a1.11,1.11,0,0,1,.85.31,1.17,1.17,0,0,1,.3.84v12.92a10.2,10.2,0,0,1,6.38-2.35,12,12,0,0,1,4.37.8,11.51,11.51,0,0,1,3.63,2.26,12.17,12.17,0,0,1,3.79,7.38l7.5-6a1,1,0,0,1,.38-.21,1.71,1.71,0,0,1,.45-.08,1.2,1.2,0,0,1,.77.41l2.11,2.63a3.13,3.13,0,0,1,.16.43,2.15,2.15,0,0,1,.08.48.85.85,0,0,1-.34.75l-12.67,9.6a15.44,15.44,0,0,1-4,4.1A10.55,10.55,0,0,1,276.8,224.26Zm5.27-12.2a6.64,6.64,0,0,0-1.77-4.5,6.05,6.05,0,0,0-2-1.38,5.88,5.88,0,0,0-2.39-.49,6.15,6.15,0,0,0-4.46,1.87,6.54,6.54,0,0,0-1.36,2.06,6.4,6.4,0,0,0-.49,2.44v.08a6.29,6.29,0,0,0,.49,2.44A6.63,6.63,0,0,0,273.5,218a6.21,6.21,0,0,0,2.44.48,6,6,0,0,0,2.39-.48,5.88,5.88,0,0,0,2-1.37,6.51,6.51,0,0,0,1.3-2.05A6.59,6.59,0,0,0,282.07,212.06Z"/><path class="cls-1" d="M306.39,214.25v-7.82a9.65,9.65,0,0,0-2.23.6,6.29,6.29,0,0,0-1.82,1.13,4.87,4.87,0,0,0-1.8,3.83v10.55a1.13,1.13,0,0,1-.36.92,1.49,1.49,0,0,1-1,.3h-3.67a1.42,1.42,0,0,1-1-.31,1.19,1.19,0,0,1-.33-.91V201.45a1.12,1.12,0,0,1,.38-.91,1.39,1.39,0,0,1,.91-.31h2.76a1.12,1.12,0,0,1,.86.33,1.55,1.55,0,0,1,.38.91l.24,1.73A10.82,10.82,0,0,1,303.4,201a12.75,12.75,0,0,1,4.4-.75h3.05a1.12,1.12,0,0,1,.78.31,1,1,0,0,1,.34.77v7.4l6.67-4.12a1.45,1.45,0,0,1,.81-.27,1,1,0,0,1,.89.58l1.43,2.64a1.36,1.36,0,0,1,.17.67.93.93,0,0,1-.43.86l-9.75,5.85a3.18,3.18,0,0,1-.65.32,2,2,0,0,1-.65.08h-3A1,1,0,0,1,306.39,214.25Z"/><path class="cls-1" d="M328.63,218.73a7.42,7.42,0,0,0,3.45-.87,20.54,20.54,0,0,0,3.26-2.15l7.57-6.5a1.16,1.16,0,0,1,.72-.24.83.83,0,0,1,.69.34l2.54,2.92a.91.91,0,0,1,.24.58,1,1,0,0,1-.4.74l-8.18,7a18.18,18.18,0,0,1-4.76,2.71,14.3,14.3,0,0,1-5,.89,12.93,12.93,0,0,1-4.72-.89,12.38,12.38,0,0,1-4-2.49,12.08,12.08,0,0,1-2.78-3.91,11.92,11.92,0,0,1-1-4.91,12.39,12.39,0,0,1,3.5-8.58,12.46,12.46,0,0,1,4-2.7,12.64,12.64,0,0,1,4.93-1,10.94,10.94,0,0,1,2.42.29,12,12,0,0,1,2.42.84,10.68,10.68,0,0,1,4.05,3.21,6.36,6.36,0,0,1,.52.89,5.45,5.45,0,0,1,.41,1.08,3.22,3.22,0,0,1,.1.79,1.47,1.47,0,0,1-.58,1.27l-12.87,9.68A5.46,5.46,0,0,0,328.63,218.73Zm-6.11-5.47,9.32-7a5.16,5.16,0,0,0-3.16-1,6.06,6.06,0,0,0-2.33.47,7.08,7.08,0,0,0-2,1.3,6.58,6.58,0,0,0-1.45,2,5.49,5.49,0,0,0-.53,2.35c0,.48,0,.86,0,1.15A2.65,2.65,0,0,0,322.52,213.26Z"/><path class="cls-1" d="M354.67,214.25v-7.82a9.56,9.56,0,0,0-2.22.6,6.35,6.35,0,0,0-1.83,1.13,4.89,4.89,0,0,0-1.79,3.83v10.55a1.13,1.13,0,0,1-.36.92,1.54,1.54,0,0,1-1,.3h-3.67a1.37,1.37,0,0,1-1-.31,1.16,1.16,0,0,1-.34-.91V201.45a1.12,1.12,0,0,1,.38-.91,1.39,1.39,0,0,1,.91-.31h2.76a1.11,1.11,0,0,1,.86.33,1.62,1.62,0,0,1,.39.91l.24,1.73a10.68,10.68,0,0,1,3.64-2.22,12.76,12.76,0,0,1,4.41-.75h3a1.12,1.12,0,0,1,.78.31,1,1,0,0,1,.35.77v7.4l6.66-4.12a1.45,1.45,0,0,1,.81-.27,1,1,0,0,1,.89.58l1.44,2.64a1.48,1.48,0,0,1,.17.67.93.93,0,0,1-.44.86L360,214.92a3,3,0,0,1-.65.32,2,2,0,0,1-.64.08h-3A1,1,0,0,1,354.67,214.25Z"/><path class="cls-1" d="M365.67,222.63V201.35a1.15,1.15,0,0,1,.3-.82,1.07,1.07,0,0,1,.83-.33h4a1.23,1.23,0,0,1,.83.33,1.06,1.06,0,0,1,.37.82v14.52l6.18-5.29,1.46-1.27a1.3,1.3,0,0,1,.79-.34,1,1,0,0,1,.7.31l.33.36,1,1a9.77,9.77,0,0,1,1.18,1.44,1.3,1.3,0,0,1,.21.65,1,1,0,0,1-.36.83l-11,9.37a4.35,4.35,0,0,1-.8.61,1.5,1.5,0,0,1-.78.21H366.8A1,1,0,0,1,365.67,222.63Zm8.39-33.31-2.4,5.52a1.32,1.32,0,0,1-.46.64,1.41,1.41,0,0,1-.71.15h-3.4a1.08,1.08,0,0,1-.61-.15.46.46,0,0,1-.23-.43,1.44,1.44,0,0,1,.14-.55l2.28-5.32a1.9,1.9,0,0,1,.54-.78,1.22,1.22,0,0,1,.75-.23h3.57q.72,0,.72.48A1.72,1.72,0,0,1,374.06,189.32Z"/><path class="cls-1" d="M414.8,213.53l-11.53,9.63a2.34,2.34,0,0,1-.74.45,2.79,2.79,0,0,1-1,.15h-2.78a1.24,1.24,0,0,1-.93-.31,1.54,1.54,0,0,1-.34-.91l-.07-1.06a10.62,10.62,0,0,1-7,2.78,12.08,12.08,0,0,1-4.75-.93,11.54,11.54,0,0,1-3.81-2.61,11.73,11.73,0,0,1-2.53-3.89,12.57,12.57,0,0,1-.9-4.77,13,13,0,0,1,.87-4.74,11.5,11.5,0,0,1,10.9-7.45,11.06,11.06,0,0,1,7.5,3l.1-1.39a1.07,1.07,0,0,1,1.29-1.24h3a1.31,1.31,0,0,1,.92.33,1.2,1.2,0,0,1,.35.89V215.8l7.62-6.54a1.31,1.31,0,0,1,.8-.36,1,1,0,0,1,.76.43L415,212a.93.93,0,0,1,.24.65A1.11,1.11,0,0,1,414.8,213.53Zm-30-1.49a6.54,6.54,0,0,0,1.78,4.51,5.9,5.9,0,0,0,1.95,1.37,5.8,5.8,0,0,0,2.38.49,6.38,6.38,0,0,0,4.51-1.86,6.43,6.43,0,0,0,1.84-4.51,6.18,6.18,0,0,0-.49-2.44,6.4,6.4,0,0,0-1.35-2.06,6.26,6.26,0,0,0-2.05-1.39,6,6,0,0,0-2.46-.51,5.61,5.61,0,0,0-2.37.51,6.21,6.21,0,0,0-2,1.39,6.3,6.3,0,0,0-1.31,2.06A6.54,6.54,0,0,0,384.79,212Z"/><rect class="cls-2" width="568.03" height="22.05"/><rect class="cls-2" y="198.87" width="137.93" height="22.05"/><rect class="cls-2" x="433.84" y="198.87" width="135.76" height="22.05"/></g></g></svg>